<svg  xmlns="http://www.w3.org/2000/svg" viewBox="0 0 184.04 27.64"><defs><style>.cls-1{fill:none;stroke:#231f20;stroke-linecap:round;stroke-miterlimit:10;stroke-width:5px;}</style></defs><g id="Layer_2" ><g id="Layer_1-2" ><path d="M3.12,2.66,0,2.3v-1H6.48V2.42L3.6,2.66ZM1.42,1.34h2.3L8.52,15H8L12.63,1.34h1.29L8.42,17.59h-1Zm11,1.32-2.4-.24V1.34H15.6v1l-2.66.36Z"/><path d="M17.78,17.43c0-1.08.08-3.56.08-5V11.26c0-1.32,0-2.07-.08-3l-2-.21V7.18l3.62-1.44L19.8,6l-.07,3.24v3.16c0,1.49,0,4,.07,5Zm3.7-.84v.84H16v-.84l2.64-.49h.48ZM17.18,1.51a1.59,1.59,0,0,1,3.17,0,1.59,1.59,0,0,1-3.17,0Z"/><path d="M23.5,16.83l-.1-2.62h1.27L25.32,17l-1.18-.55v-.82a4.58,4.58,0,0,0,3,1c1.84,0,2.71-.75,2.71-1.85s-.72-1.56-2.23-2.11l-1.11-.41c-1.75-.65-2.9-1.59-2.9-3.22S25,5.74,27.7,5.74a6.13,6.13,0,0,1,3.33,1l-.09,2.42h-1.2l-.48-2.42.86.38v.63a3.92,3.92,0,0,0-2.45-.91c-1.49,0-2.25.64-2.25,1.65S26,10,27.65,10.56l.72.26c2.4.89,3.31,2,3.31,3.51,0,1.77-1.56,3.41-4.63,3.41A7.27,7.27,0,0,1,23.5,16.83Z"/><path d="M35.3,17.43c.05-1.08.08-3.56.08-5V11.26c0-1.32,0-2.07-.08-3l-2-.21V7.18L37,5.74l.36.24-.07,3.24v3.16c0,1.49,0,4,.07,5Zm3.7-.84v.84H33.48v-.84l2.64-.49h.48ZM34.7,1.51a1.59,1.59,0,0,1,3.17,0,1.59,1.59,0,0,1-3.17,0Z"/><path d="M45.26,16.54a2.8,2.8,0,0,0,1.64-.67l.55.64a3.44,3.44,0,0,1-2.79,1.23A2.43,2.43,0,0,1,42,15c0-.57,0-1.08,0-2V7.3H40v-1l3-.38-1,.79.72-3.89h1.39L43.92,7v7.78C43.92,16,44.45,16.54,45.26,16.54Zm2-10.49V7.3H43V6.05Z"/><path d="M54.22,2.3v-1h3.36V2.66h-.24Zm3.6,13.8,3.12.37v1H54.22v-1l3.12-.37ZM56.5,8.78c0-2.47,0-5-.08-7.44h2.31c-.07,2.43-.07,4.92-.07,7.44v1.47c0,2.45,0,4.7.07,7.18H56.42c.08-2.43.08-4.93.08-7.45ZM60,11.06H57.58V10h2.73c2.95,0,4.11-1.56,4.11-3.84s-1.3-3.67-4.2-3.67H57.58V1.34h3.09c4,0,6,2,6,4.78S64.85,11.06,60,11.06Z"/><path d="M67.87,11.78c0-4,2.71-6,5.47-6s5.48,2.06,5.48,6-2.76,6-5.48,6S67.87,15.77,67.87,11.78Zm8.79,0c0-3.21-1.23-5-3.32-5S70,8.57,70,11.78s1.18,4.88,3.31,4.88S76.66,15,76.66,11.78Z"/><path d="M82.58,17.43c0-1.08.08-3.56.08-5V11.26c0-1.32,0-2.07-.08-3l-2-.21V7.18l3.62-1.44L84.6,6l-.07,3.24v3.16c0,1.49,0,4,.07,5Zm3.7-.84v.84H80.76v-.84l2.64-.49h.48ZM82,1.51a1.59,1.59,0,0,1,3.17,0,1.59,1.59,0,0,1-3.17,0Z"/><path d="M89.81,17.43c0-1.08.07-3.56.07-5V11.26c0-1.32,0-2.07-.07-3L87.89,8V7.18l3.26-1.44.36.24.29,2.78v3.62c0,1.49,0,4,.07,5Zm3.74-.84v.84H88v-.84l2.64-.49h.48Zm5.55-6.41v2.2c0,1.54,0,4,.07,5H97.1c.05-1.08.08-3.51.08-5v-2c0-2.23-.58-2.95-2-2.95a5.28,5.28,0,0,0-3.55,1.65H91.1V8h1.23l-1,.43a6.51,6.51,0,0,1,4.76-2.68C98.11,5.74,99.1,7,99.1,10.18Zm-.65,5.92,2.4.49v.84H95.33v-.84L98,16.1Z"/><path d="M106.94,16.54a2.8,2.8,0,0,0,1.64-.67l.55.64a3.44,3.44,0,0,1-2.79,1.23A2.43,2.43,0,0,1,103.66,15c0-.57,0-1.08,0-2V7.3h-2v-1l3-.38-1,.79.72-3.89h1.39L105.6,7v7.78C105.6,16,106.13,16.54,106.94,16.54Zm2-10.49V7.3h-4.27V6.05Z"/><path d="M110.45,16.83l-.1-2.62h1.27l.65,2.83-1.17-.55v-.82a4.55,4.55,0,0,0,3,1c1.85,0,2.71-.75,2.71-1.85s-.72-1.56-2.23-2.11l-1.11-.41c-1.75-.65-2.9-1.59-2.9-3.22s1.46-3.33,4.13-3.33a6.13,6.13,0,0,1,3.33,1l-.09,2.42h-1.2l-.48-2.42.86.38v.63a3.92,3.92,0,0,0-2.45-.91c-1.48,0-2.25.64-2.25,1.65s.6,1.49,2.23,2.09l.72.26c2.4.89,3.31,2,3.31,3.51,0,1.77-1.56,3.41-4.63,3.41A7.3,7.3,0,0,1,110.45,16.83Z"/><circle cx="133.6" cy="14.76" r="3.77"/><circle cx="153.13" cy="15.23" r="3.77"/><circle cx="143.37" cy="14.76" r="3.77"/><line class="cls-1" x1="20.59" y1="25.14" x2="181.54" y2="25.14"/></g></g></svg>