<svg id="ba520358-2883-4a5d-a333-3b1a63fb197b"  xmlns="http://www.w3.org/2000/svg" viewBox="0 0 247.87 44.89"><defs><style>.adeb16b0-b1f8-46eb-ad92-0050dfccccbf{fill:#b7999c;}.b5136ddd-014c-49d7-a4d3-c6df787a6e7f{fill:#eb5160;}.a213b55a-d0cb-4ea3-8edf-2f7abd418d7e{fill:#071013;}</style></defs><circle class="adeb16b0-b1f8-46eb-ad92-0050dfccccbf" cx="173.52" cy="18.93" r="5.5"/><circle class="adeb16b0-b1f8-46eb-ad92-0050dfccccbf" cx="196.52" cy="18.93" r="5.5"/><circle class="adeb16b0-b1f8-46eb-ad92-0050dfccccbf" cx="148.52" cy="5.93" r="5.5"/><circle class="adeb16b0-b1f8-46eb-ad92-0050dfccccbf" cx="171.52" cy="5.93" r="5.5"/><path class="b5136ddd-014c-49d7-a4d3-c6df787a6e7f" d="M290.32,323.34c18.77,1.3,37.53,2.21,56.3,3s37.53,1.39,56.3,1.91c9.38.28,18.77.42,28.15.64s18.77.31,28.15.38c18.77.18,37.54.18,56.3-.26a2.79,2.79,0,0,1,.13,5.57h-.13c-18.76-.44-37.53-.44-56.3-.27-9.38.08-18.77.24-28.15.39s-18.77.36-28.15.64c-18.77.52-37.53,1.1-56.3,1.91s-37.53,1.69-56.3,3a8.47,8.47,0,0,1-1.17-16.89A11.41,11.41,0,0,1,290.32,323.34Z" transform="translate(-270.5 -295.35)"/><path class="a213b55a-d0cb-4ea3-8edf-2f7abd418d7e" d="M282.3,310.24a1,1,0,0,1-.28.27,1.86,1.86,0,0,1-.34.19,1.82,1.82,0,0,1-.38.11,1.48,1.48,0,0,1-.34,0h-1.55a8.14,8.14,0,0,0-1,.08c-.38.06-.77.12-1.15.21l-1.17.27-1.08.29c-.55.16-1.07.29-1.55.41a5.28,5.28,0,0,1-1.25.17,2.46,2.46,0,0,1-.77-.11,1.58,1.58,0,0,1-.52-.32,1.32,1.32,0,0,1-.29-.46,1.6,1.6,0,0,1-.09-.53,8.21,8.21,0,0,1,.12-1.26c.08-.49.18-1,.29-1.54q0-.21.15-.84l.24-1.44c.1-.54.19-1.13.29-1.75s.19-1.21.28-1.77.17-1.07.23-1.51.1-.75.12-.93c0-.34.06-.66.08-1s0-.57.07-.82a4.11,4.11,0,0,1,.13-.68,1.38,1.38,0,0,1,.25-.5,1,1,0,0,1,.45-.32,2,2,0,0,1,.7-.11,1.45,1.45,0,0,1,.64.13,1.2,1.2,0,0,1,.39.35,1.63,1.63,0,0,1,.2.49,2.51,2.51,0,0,1,.06.55c0,.07,0,.23-.07.48s-.09.55-.16.92-.15.77-.23,1.22-.17.9-.26,1.37-.18.92-.25,1.36l-.21,1.2c-.06.33-.13.69-.21,1.07s-.17.77-.24,1.16-.09.57-.14.86-.1.57-.14.83-.08.5-.1.71,0,.39,0,.53a.76.76,0,0,0,0,.21c0,.06,0,.1.08.1a3.67,3.67,0,0,0,.56-.07c.23,0,.49-.1.76-.17s.56-.14.85-.23l.8-.23.35-.08.6-.13.73-.14.73-.13.61-.1.36,0a3.61,3.61,0,0,0,.53,0,7.53,7.53,0,0,1,.89-.05,2.68,2.68,0,0,1,1.19.2.72.72,0,0,1,.37.7,1.23,1.23,0,0,1-.07.42A.91.91,0,0,1,282.3,310.24Z" transform="translate(-270.5 -295.35)"/><path class="a213b55a-d0cb-4ea3-8edf-2f7abd418d7e" d="M298.91,302.9a1.15,1.15,0,0,1-.07.39,3,3,0,0,1-.21.4,2.51,2.51,0,0,1-.31.35,2.2,2.2,0,0,1-.34.28,4,4,0,0,1-1.07.43,7,7,0,0,1-1.7.18,4.45,4.45,0,0,1-.61,0c-.21,0-.43-.06-.66-.11s-.44-.11-.65-.18a5.7,5.7,0,0,1-.62-.24.86.86,0,0,1,.1.25,1.91,1.91,0,0,1,.06.33c0,.12,0,.23,0,.34v.25a3.72,3.72,0,0,1-.23,1.3,6,6,0,0,1-.61,1.25,7.07,7.07,0,0,1-.86,1.1,7.86,7.86,0,0,1-1,.88,4.57,4.57,0,0,1-.89.51,8.33,8.33,0,0,1-1,.36,7.65,7.65,0,0,1-1.1.22,11.11,11.11,0,0,1-1.16.07,1.89,1.89,0,0,1-.92-.24,2.84,2.84,0,0,1-.77-.61,3.09,3.09,0,0,1-.54-.84,2.48,2.48,0,0,1-.2-.94,6,6,0,0,1,.22-1.58,8.75,8.75,0,0,1,.59-1.46,12.73,12.73,0,0,1,.86-1.39c.33-.46.68-.91,1-1.35a6.45,6.45,0,0,1,.73-.76,6,6,0,0,1,.86-.66,5.08,5.08,0,0,1,.93-.47,2.69,2.69,0,0,1,.89-.17,2.22,2.22,0,0,1,.62.08,2,2,0,0,1,.49.23,2.37,2.37,0,0,1,.42.37c.14.14.28.3.43.48l.22.23a1.57,1.57,0,0,0,.44.25,7.72,7.72,0,0,0,.87.32,10.93,10.93,0,0,0,1.06.28,4.23,4.23,0,0,0,1,.13h.87a7.77,7.77,0,0,0,.83-.08,6,6,0,0,0,.87-.2c.3-.1.64-.23,1-.39a1,1,0,0,1,.08.24C298.9,302.77,298.91,302.85,298.91,302.9Zm-8,2.31a4.84,4.84,0,0,0,0-.53,2.08,2.08,0,0,0-.11-.52,1.4,1.4,0,0,0-.22-.42.73.73,0,0,0-.38-.24,3.35,3.35,0,0,1-.59-.2l-.36-.2a1,1,0,0,1-.18-.16.15.15,0,0,0-.07-.06c-.06,0-.13.05-.23.14a3.89,3.89,0,0,0-.33.35l-.37.46-.36.47c-.15.17-.28.35-.41.51s-.25.35-.37.53-.24.37-.35.57-.24.41-.36.65a3.1,3.1,0,0,0-.25.81,5.76,5.76,0,0,0-.08.89,1.47,1.47,0,0,0,0,.36,1.33,1.33,0,0,0,.12.32.73.73,0,0,0,.22.24.58.58,0,0,0,.33.09,5.72,5.72,0,0,0,.79,0,2.23,2.23,0,0,0,.59-.16,2.67,2.67,0,0,0,.56-.32l.68-.5a2.25,2.25,0,0,0,.37-.33,4.89,4.89,0,0,0,.37-.41l.36-.46c.12-.16.22-.32.32-.47a1.39,1.39,0,0,0,.14-.32l.09-.41c0-.13,0-.26.05-.37s0-.2,0-.25Z" transform="translate(-270.5 -295.35)"/><path class="a213b55a-d0cb-4ea3-8edf-2f7abd418d7e" d="M309.63,304.38a.91.91,0,0,1-.06.35,1.14,1.14,0,0,1-.17.3,2.28,2.28,0,0,1-.31.32l-.45.44-.9.91-.5.48-.42.36-.41.35-.52.44q-.67.56-1.32,1.05c-.43.33-.85.62-1.26.88a8.1,8.1,0,0,1-2,.91,7.75,7.75,0,0,1-2.23.31,3.13,3.13,0,0,1-1.37-.28,3,3,0,0,1-1-.76,3.25,3.25,0,0,1-.62-1.11,4.33,4.33,0,0,1-.21-1.35,7.06,7.06,0,0,1,.56-2.7A12.45,12.45,0,0,1,298,302.6c.16-.21.36-.44.58-.68a6.06,6.06,0,0,1,.7-.65,4.25,4.25,0,0,1,.76-.49,1.81,1.81,0,0,1,.76-.19,1,1,0,0,1,.48.14,2.52,2.52,0,0,1,.45.38,3.58,3.58,0,0,1,.41.55,5.28,5.28,0,0,1,.36.67,2.91,2.91,0,0,1,.33,1,2.45,2.45,0,0,1,0,.43,1.55,1.55,0,0,1-.13.48,1.12,1.12,0,0,1-.26.38.57.57,0,0,1-.42.16.88.88,0,0,1-.63-.24A2.31,2.31,0,0,1,301,304a4.19,4.19,0,0,1-.26-.63,1.77,1.77,0,0,0-.18-.44,1.63,1.63,0,0,0-.52.36,4.13,4.13,0,0,0-.53.66,7.12,7.12,0,0,0-.51.87,10.71,10.71,0,0,0-.41,1,8.77,8.77,0,0,0-.29,1.12,6.46,6.46,0,0,0-.11,1.14,1.27,1.27,0,0,0,.38.91,1.21,1.21,0,0,0,.8.43,6,6,0,0,0,2.25-.43,9.94,9.94,0,0,0,2.09-1.14c.45-.33.92-.69,1.42-1.09s1-.88,1.62-1.44c.21-.2.42-.4.64-.59a6.73,6.73,0,0,1,.63-.49,3.85,3.85,0,0,1,.6-.35,1.19,1.19,0,0,1,.52-.14Q309.63,303.81,309.63,304.38Z" transform="translate(-270.5 -295.35)"/><path class="a213b55a-d0cb-4ea3-8edf-2f7abd418d7e" d="M323,304.56a1.25,1.25,0,0,1,0,.3c0,.11-.07.22-.11.33s-.11.23-.16.33a2.62,2.62,0,0,1-.17.27,2,2,0,0,1-.17.2l-.25.29-.33.34-.36.37c-.4.37-.8.74-1.2,1.09a10.42,10.42,0,0,1-1.28,1,6.91,6.91,0,0,1-1.4.67A4.61,4.61,0,0,1,316,310a1.66,1.66,0,0,1-.71-.16,2.5,2.5,0,0,1-.67-.42,3.1,3.1,0,0,1-.54-.64,2.63,2.63,0,0,1-.32-.8,5.37,5.37,0,0,1-.48.66c-.2.23-.42.47-.65.7s-.48.45-.74.66-.48.39-.7.54a6.24,6.24,0,0,1-.55.32,7,7,0,0,1-.68.3,6.18,6.18,0,0,1-.73.23,3.3,3.3,0,0,1-.67.08,1.37,1.37,0,0,1-.86-.28,2.37,2.37,0,0,1-.61-.69,3.33,3.33,0,0,1-.36-.87,3.39,3.39,0,0,1-.12-.83,5.17,5.17,0,0,1,.2-1.38,9.42,9.42,0,0,1,.52-1.37,10.28,10.28,0,0,1,.69-1.27c.26-.41.51-.76.76-1.08a8.39,8.39,0,0,1,.93-1,9.54,9.54,0,0,1,1.14-.87,7,7,0,0,1,1.17-.62,2.76,2.76,0,0,1,1-.24l.51,0a4.36,4.36,0,0,1,.52,0,3.86,3.86,0,0,1,.49.09,2.05,2.05,0,0,1,.42.15,1.3,1.3,0,0,1,.27.29,4.92,4.92,0,0,1,.28.45c.08.17.16.32.22.48a1.14,1.14,0,0,1,.09.37,3.75,3.75,0,0,1-.08.68c-.06.27-.13.54-.2.83s-.14.58-.2.88a4.41,4.41,0,0,0-.09.86,2.46,2.46,0,0,0,.08.59,1.7,1.7,0,0,0,.24.53,1.29,1.29,0,0,0,.37.4.81.81,0,0,0,.48.15,3.39,3.39,0,0,0,1.2-.22,6.47,6.47,0,0,0,1.19-.62A11.9,11.9,0,0,0,320,306c.39-.36.79-.74,1.2-1.16l.16-.15.34-.34a4.18,4.18,0,0,1,.42-.34.74.74,0,0,1,.39-.15c.2,0,.33.05.39.17A1.2,1.2,0,0,1,323,304.56Zm-9.32-1.05a.64.64,0,0,0,0-.22.92.92,0,0,0-.09-.23.83.83,0,0,0-.13-.18c-.05-.05-.09-.08-.13-.08a2.27,2.27,0,0,0-1.24.36,7.57,7.57,0,0,0-1.16,1,5.46,5.46,0,0,0-.72.92,10.31,10.31,0,0,0-.72,1.22,10.11,10.11,0,0,0-.54,1.29,3.74,3.74,0,0,0-.21,1.14,1.93,1.93,0,0,0,0,.24.65.65,0,0,0,.06.21.47.47,0,0,0,.13.15.38.38,0,0,0,.22.06,1.94,1.94,0,0,0,.88-.25,5.17,5.17,0,0,0,1-.66,7.59,7.59,0,0,0,1-.93,7.08,7.08,0,0,0,.79-1.08,8.75,8.75,0,0,0,.66-1.42A4.19,4.19,0,0,0,313.71,303.51Z" transform="translate(-270.5 -295.35)"/><path class="a213b55a-d0cb-4ea3-8edf-2f7abd418d7e" d="M321.52,308.37a7.57,7.57,0,0,1,.06-.95c0-.32.08-.63.14-.94s.12-.62.19-.91l.19-.84c.07-.36.14-.68.2-1a4.71,4.71,0,0,0,.11-.78l-.34.06-.38.05-.38,0H321a2.87,2.87,0,0,1-.55,0,.89.89,0,0,1-.38-.17.75.75,0,0,1-.23-.36,1.94,1.94,0,0,1-.07-.59.66.66,0,0,1,.11-.38.85.85,0,0,1,.28-.25,1.33,1.33,0,0,1,.4-.12,2.25,2.25,0,0,1,.44,0l.32,0,.5-.05.52-.06.38-.05c.06,0,.11,0,.16-.12a1.57,1.57,0,0,0,.14-.29,2.06,2.06,0,0,0,.12-.35,1.56,1.56,0,0,0,.07-.3l.15-.68c.07-.26.14-.54.22-.82s.16-.55.24-.8a3.36,3.36,0,0,1,.26-.61,1.51,1.51,0,0,1,.35-.49,1,1,0,0,1,.59-.16,1.06,1.06,0,0,1,.79.26,1.07,1.07,0,0,1,.25.79,2.51,2.51,0,0,1-.1.63q-.1.39-.24.84c-.09.3-.18.6-.25.9a3.3,3.3,0,0,0-.13.82c.13,0,.33,0,.59-.05l.82-.09.83-.12.6-.1c.28-.07.51-.11.66-.14l.42-.09.41-.1c.15,0,.35-.09.62-.17a2.7,2.7,0,0,0,.25.2l.13.12.07.08a.31.31,0,0,1,0,.1,1,1,0,0,1-.37.73,3.62,3.62,0,0,1-.93.59,7.41,7.41,0,0,1-1.23.43c-.44.12-.85.22-1.24.29l-.78.12-.6.1a2.61,2.61,0,0,0-.42.1.54.54,0,0,0-.24.14l-.31,1.1c-.11.43-.22.88-.32,1.35s-.19,1-.25,1.43A9.42,9.42,0,0,0,324,308a1.63,1.63,0,0,0,.28,1.05.91.91,0,0,0,.78.35,6.84,6.84,0,0,0,.91-.06,5.4,5.4,0,0,0,.93-.25,7.32,7.32,0,0,0,1-.49,13.53,13.53,0,0,0,1.22-.79l.38-.31.41-.34a3.19,3.19,0,0,1,.42-.26.87.87,0,0,1,.44-.11.44.44,0,0,1,.32.1.35.35,0,0,1,.12.3.86.86,0,0,1-.1.37,2.5,2.5,0,0,1-.29.47c-.12.16-.27.33-.43.51a5.31,5.31,0,0,1-.56.49,14.17,14.17,0,0,1-1.25.9,10.79,10.79,0,0,1-1.32.74,8.26,8.26,0,0,1-1.35.51,5.2,5.2,0,0,1-1.34.18,3.47,3.47,0,0,1-1.4-.25,2.59,2.59,0,0,1-.93-.67,2.54,2.54,0,0,1-.54-1A3.77,3.77,0,0,1,321.52,308.37Z" transform="translate(-270.5 -295.35)"/><path class="a213b55a-d0cb-4ea3-8edf-2f7abd418d7e" d="M340.47,306.37a1.68,1.68,0,0,1-.3.86,5.55,5.55,0,0,1-.8,1,9.56,9.56,0,0,1-1.21,1.06,10.28,10.28,0,0,1-1.37.84,8.08,8.08,0,0,1-1.46.55,5.6,5.6,0,0,1-1.43.2,4,4,0,0,1-1.53-.27,3,3,0,0,1-1.14-.8,3.48,3.48,0,0,1-.71-1.32,5.91,5.91,0,0,1-.25-1.81,6.88,6.88,0,0,1,.12-1.26,8.41,8.41,0,0,1,.34-1.26,7.9,7.9,0,0,1,.56-1.22,8.09,8.09,0,0,1,.77-1.11c.19-.22.4-.44.63-.67a5.29,5.29,0,0,1,.79-.6,4.58,4.58,0,0,1,.95-.43,3.65,3.65,0,0,1,1.12-.17,2.07,2.07,0,0,1,.88.18,2.35,2.35,0,0,1,.65.45,2.14,2.14,0,0,1,.41.63,1.89,1.89,0,0,1,.14.69,3.29,3.29,0,0,1-.34,1.49,5.28,5.28,0,0,1-1,1.32,11.25,11.25,0,0,1-1.48,1.24c-.58.4-1.22.81-1.91,1.24a.54.54,0,0,0-.16.09c-.08,0-.11.08-.11.09a1.47,1.47,0,0,0,.1.44,1.25,1.25,0,0,0,.29.44,1.44,1.44,0,0,0,.5.35,1.74,1.74,0,0,0,.72.14,4.91,4.91,0,0,0,1.3-.18,6.45,6.45,0,0,0,1.29-.52,8.06,8.06,0,0,0,1.24-.82,8.41,8.41,0,0,0,1.15-1.09,1.37,1.37,0,0,1,.41-.34.89.89,0,0,1,.37-.1.39.39,0,0,1,.3.14A.79.79,0,0,1,340.47,306.37Zm-5-3.93a.54.54,0,0,0-.06-.27.61.61,0,0,0-.14-.17.6.6,0,0,0-.15-.09l-.11,0a1.21,1.21,0,0,0-.85.35,3.48,3.48,0,0,0-.7.91,6.81,6.81,0,0,0-.54,1.22c-.15.44-.28.87-.38,1.29l1.14-.87a10,10,0,0,0,.93-.78,3.84,3.84,0,0,0,.63-.76A1.55,1.55,0,0,0,335.5,302.44Z" transform="translate(-270.5 -295.35)"/><path class="b5136ddd-014c-49d7-a4d3-c6df787a6e7f" d="M355.84,299a2,2,0,0,1-.08.46,5.16,5.16,0,0,1-.21.63c-.09.22-.18.43-.28.64a3.42,3.42,0,0,1-.3.52,6.33,6.33,0,0,1-1,1,13.15,13.15,0,0,1-1.44,1.1c-.51.35-1,.69-1.59,1s-1.08.62-1.62.89-1.31.64-2,.93-1.36.54-2,.75v.49c0,.09,0,.24,0,.43s0,.43,0,.69,0,.54.05.83,0,.58.05.86,0,.54,0,.78,0,.44,0,.59a1,1,0,0,1-.34.81,1.25,1.25,0,0,1-.88.29q-1.48,0-1.48-5c0-.29,0-.59,0-.89s0-.62.08-1,.08-.72.14-1.11.12-.84.19-1.34.13-.8.19-1.18.14-.74.22-1.1.18-.71.29-1.06.25-.7.41-1.05l-.67.21-.73.24-.22.08a1,1,0,0,1-.25,0,.92.92,0,0,1-.64-.22.69.69,0,0,1-.25-.56,1.44,1.44,0,0,1,.18-.73,1.54,1.54,0,0,1,.55-.56,4.18,4.18,0,0,1,1-.44,14.86,14.86,0,0,1,1.46-.36c.33-.07.68-.14,1.07-.2s.77-.12,1.15-.18l1.14-.12a9.52,9.52,0,0,1,1-.06h1.05c.34,0,.67,0,1,.06s.65.06,1,.11.65.11,1,.19a4.7,4.7,0,0,1,1.8.82A2,2,0,0,1,355.84,299Zm-5.85-.8c-.54,0-1.13,0-1.77.1s-1.27.15-1.89.25a1.14,1.14,0,0,1,.3.83,1.71,1.71,0,0,1-.07.33l-.17.57-.18.57q-.09.27-.12.33a3.4,3.4,0,0,0-.1.33c0,.13-.06.28-.09.44l-.09.48c0,.17-.05.33-.08.49s-.07.4-.1.56,0,.3-.05.43,0,.25,0,.36,0,.24,0,.36l.77-.32.87-.37c.3-.12.59-.25.87-.38l.76-.34.39-.21.45-.23.47-.25.43-.25a11.18,11.18,0,0,0,1-.71,9,9,0,0,0,1-.86,5.48,5.48,0,0,0,.72-.94,1.77,1.77,0,0,0,.28-.9c0-.14-.17-.26-.52-.35a9.19,9.19,0,0,0-1.57-.26Q350.62,298.15,350,298.15Z" transform="translate(-270.5 -295.35)"/><path class="b5136ddd-014c-49d7-a4d3-c6df787a6e7f" d="M370.78,302.5a.82.82,0,0,1-.13.42,2.85,2.85,0,0,1-.32.44,4.76,4.76,0,0,1-.46.43,5.93,5.93,0,0,1-.51.4c-.17.12-.34.22-.49.31l-.38.21a6.64,6.64,0,0,1-.72.21c-.29.06-.59.12-.91.16s-.63.08-.92.11a7.6,7.6,0,0,1-.76,0l-.2,0-.27,0-.3-.08a.83.83,0,0,1-.25-.12,1.47,1.47,0,0,1,.13.52c0,.19,0,.38,0,.56a2.77,2.77,0,0,1,0,.46,5.17,5.17,0,0,1-.11.54,3.08,3.08,0,0,1-.16.54,2.5,2.5,0,0,1-.19.43,6.76,6.76,0,0,1-.55.81,6,6,0,0,1-.65.69,5.63,5.63,0,0,1-.81.59,8.49,8.49,0,0,1-1.05.54,5,5,0,0,1-1.27.39,8,8,0,0,1-1.31.11,1.51,1.51,0,0,1-.89-.27,2.12,2.12,0,0,1-.66-.7,3.39,3.39,0,0,1-.4-1,4.81,4.81,0,0,1-.14-1.2c0-.11,0-.23,0-.39a3.69,3.69,0,0,1,.08-.46c0-.16.06-.31.1-.47a3.46,3.46,0,0,1,.11-.37,7.25,7.25,0,0,1,.41-1,11.89,11.89,0,0,1,.64-1.13,12.59,12.59,0,0,1,.82-1.14,7.52,7.52,0,0,1,1-1,4.68,4.68,0,0,1,1.06-.71,2.57,2.57,0,0,1,1.1-.26,1.34,1.34,0,0,1,.38,0,.58.58,0,0,1,.23.13.69.69,0,0,1,.17.17l.17.19.15,0h.16a1,1,0,0,1,.63.24c.2.17.41.35.62.55l.29.27.28.25a1.46,1.46,0,0,0,.22.17.42.42,0,0,0,.13.07h.58l.64,0c.21,0,.42,0,.62-.05l.55-.07.27-.06.57-.15.72-.19.72-.19.58-.14.28-.06a1,1,0,0,1,.33,0C370.74,302.25,370.78,302.34,370.78,302.5ZM359,309.34a2.57,2.57,0,0,0,1.47-.44,3.69,3.69,0,0,0,1.08-1.17,6,6,0,0,0,.68-1.68,8.17,8.17,0,0,0,.26-1.93,1.75,1.75,0,0,0-.21-.32,2.21,2.21,0,0,0-.32-.29,2.12,2.12,0,0,0-.36-.21.88.88,0,0,0-.33-.08,1,1,0,0,0-.54.19c-.19.13-.37.27-.53.4a2.9,2.9,0,0,0-.49.54,4.93,4.93,0,0,0-.44.75,7.45,7.45,0,0,0-.38.86,8.78,8.78,0,0,0-.3.91,7,7,0,0,0-.19.86,4.27,4.27,0,0,0-.07.75,1.13,1.13,0,0,0,.05.32,1.15,1.15,0,0,0,.14.27.66.66,0,0,0,.21.2A.5.5,0,0,0,359,309.34Z" transform="translate(-270.5 -295.35)"/><path class="b5136ddd-014c-49d7-a4d3-c6df787a6e7f" d="M377.85,308.29l-.64.63c-.21.2-.41.39-.61.56L376,310c-.21.17-.43.34-.67.51a6.87,6.87,0,0,1-1.39.8,3.59,3.59,0,0,1-1.3.28,3,3,0,0,1-1.25-.24,2.69,2.69,0,0,1-.9-.66,3.59,3.59,0,0,1-.61-.95,6.08,6.08,0,0,1-.37-1.14,7.2,7.2,0,0,1-.19-1.22q-.06-.61-.06-1.17c0-.14,0-.35,0-.62s.05-.55.09-.85.08-.58.13-.86.09-.51.13-.68a2,2,0,0,1,.26-.51,2.09,2.09,0,0,1,.45-.44,1.84,1.84,0,0,1,1.19-.43c.44,0,.67.26.67.8a4.23,4.23,0,0,1-.06.65c-.05.25-.08.51-.12.77s-.08.58-.11.83-.06.46-.09.65,0,.37-.05.53a3.54,3.54,0,0,0,0,.45,6.92,6.92,0,0,0,.05.87,7.58,7.58,0,0,0,.17.9,3.09,3.09,0,0,0,.28.7c.11.19.23.28.38.28a4.05,4.05,0,0,0,.72-.08,2.85,2.85,0,0,0,.85-.33c.28-.17.58-.36.89-.58a11.54,11.54,0,0,0,1-.75l.91-.8c.3-.27.6-.56.9-.88l.37-.38c.11-.12.22-.23.31-.34l.29-.31.29-.31.1-.12.13-.13a.91.91,0,0,1,.16-.11.33.33,0,0,1,.16-.05.69.69,0,0,1,.24.05.38.38,0,0,1,.2.21.76.76,0,0,1,.09.28c0,.09,0,.17,0,.23a.83.83,0,0,1-.12.33,5,5,0,0,1-.29.54c-.13.21-.27.43-.44.66l-.5.69c-.17.24-.34.46-.52.67S378,308.13,377.85,308.29Zm-4-11.9a2.2,2.2,0,0,1-.1.64,2.23,2.23,0,0,1-.3.57,1.38,1.38,0,0,1-1.2.54,3.86,3.86,0,0,1-.58,0,2.18,2.18,0,0,1-.53-.15,1.12,1.12,0,0,1-.4-.24.42.42,0,0,1-.15-.32,1.48,1.48,0,0,1,.17-.68,3,3,0,0,1,.42-.65,2.74,2.74,0,0,1,.57-.51,1.16,1.16,0,0,1,.6-.2,4.06,4.06,0,0,1,.64,0,1.3,1.3,0,0,1,.47.16.69.69,0,0,1,.29.32A1.1,1.1,0,0,1,373.86,296.39Z" transform="translate(-270.5 -295.35)"/><path class="b5136ddd-014c-49d7-a4d3-c6df787a6e7f" d="M396.48,304.11a1.82,1.82,0,0,1-.07.43,4.22,4.22,0,0,1-.18.45,3,3,0,0,1-.24.43,2.36,2.36,0,0,1-.24.33c-.22.28-.46.57-.73.87s-.55.62-.85.92-.59.59-.9.86a9.46,9.46,0,0,1-.92.73l-.7.45a6.52,6.52,0,0,1-.68.38,3.82,3.82,0,0,1-1.62.34,2.44,2.44,0,0,1-1.27-.3,2.5,2.5,0,0,1-.83-.82,4.64,4.64,0,0,1-.49-1.18,11.63,11.63,0,0,1-.26-1.38,11.35,11.35,0,0,0-.3-1.54c-.11-.38-.24-.57-.4-.57a.85.85,0,0,0-.4.1,1.73,1.73,0,0,0-.48.41c-.2.22-.44.53-.74.93s-.69.95-1.16,1.63l-.6.78c-.24.28-.49.56-.75.82a8,8,0,0,1-.77.7,2.55,2.55,0,0,1-.71.41c-.87-.19-1.3-1-1.3-2.47a14,14,0,0,1,.13-1.63c0-.32.08-.66.13-1s.12-.71.2-1.07.17-.71.28-1.06a8.34,8.34,0,0,1,.38-1,1.5,1.5,0,0,1,.28-.39,1,1,0,0,1,.31-.21,1.39,1.39,0,0,1,.33-.1l.35,0a.67.67,0,0,1,.3.08.9.9,0,0,1,.26.22,1.43,1.43,0,0,1,.18.35,1.68,1.68,0,0,1,.06.47,2.15,2.15,0,0,1,0,.45,3.69,3.69,0,0,1-.11.45c-.05.15-.1.32-.15.49s-.1.36-.16.58-.08.33-.15.55-.13.46-.19.71-.13.48-.18.71a3.2,3.2,0,0,0-.1.58c.12-.14.26-.32.42-.53l.51-.7.54-.77c.19-.26.37-.5.56-.73s.47-.59.7-.86a5.94,5.94,0,0,1,.74-.69,3.2,3.2,0,0,1,.83-.46,3,3,0,0,1,1-.17,2,2,0,0,1,1.08.27,2.09,2.09,0,0,1,.68.76,4.24,4.24,0,0,1,.37,1.14,14,14,0,0,1,.19,1.44c0,.27.07.54.11.82a4.12,4.12,0,0,0,.2.77,1.84,1.84,0,0,0,.35.56.69.69,0,0,0,.53.22,2.46,2.46,0,0,0,1-.25,7,7,0,0,0,1.18-.69,15.48,15.48,0,0,0,1.26-1c.43-.39.86-.81,1.29-1.25.14-.14.27-.28.4-.43a4.25,4.25,0,0,1,.36-.37,2,2,0,0,1,.34-.28.7.7,0,0,1,.33-.1l.14,0a.34.34,0,0,1,.15.06.3.3,0,0,1,.12.13A.45.45,0,0,1,396.48,304.11Z" transform="translate(-270.5 -295.35)"/><path class="b5136ddd-014c-49d7-a4d3-c6df787a6e7f" d="M405.47,302.49a.86.86,0,0,1-.08.36,1.14,1.14,0,0,1-.21.28,1.49,1.49,0,0,1-.27.23l-.28.19q-.47.19-1,.36c-.35.1-.7.19-1.05.26l-1,.18-.92.12-.6.07-.61.06-.55.07-.44.06c-.15.58-.3,1.14-.43,1.67s-.25,1-.34,1.51q0,.12-.06.33c0,.15-.06.3-.09.48l-.09.53c0,.19-.05.37-.07.54s-.05.32-.06.45a1.85,1.85,0,0,0,0,.3.92.92,0,0,0,.11.51,1.33,1.33,0,0,0,.23.24,2.65,2.65,0,0,1,.34.32.61.61,0,0,1,.14.42.59.59,0,0,1-.15.38,1.17,1.17,0,0,1-.35.31,2,2,0,0,1-.47.22,1.28,1.28,0,0,1-.46.08,1.26,1.26,0,0,1-.66-.18,1.93,1.93,0,0,1-.52-.47,2.24,2.24,0,0,1-.32-.68,2.54,2.54,0,0,1-.12-.78,11.76,11.76,0,0,1,.11-1.49,13.61,13.61,0,0,1,.29-1.63c.06-.24.12-.5.18-.79s.13-.56.18-.82.1-.49.15-.69.06-.34.08-.4a4.48,4.48,0,0,0-.62.06,8.72,8.72,0,0,1-1,.05,4.26,4.26,0,0,1-.78-.06,1.24,1.24,0,0,1-.52-.21.82.82,0,0,1-.3-.42,2.25,2.25,0,0,1-.09-.7.48.48,0,0,1,.17-.39,1.36,1.36,0,0,1,.43-.23,3,3,0,0,1,.54-.1,4.27,4.27,0,0,1,.49,0l.36,0,.55-.05.59-.05.44,0s.07-.06.12-.19a3.94,3.94,0,0,0,.16-.51c.06-.2.11-.43.17-.68s.12-.49.17-.74.1-.46.15-.67.08-.36.11-.48c.07-.29.14-.61.19-1a5.32,5.32,0,0,1,.23-1,2.11,2.11,0,0,1,.43-.8,1,1,0,0,1,.81-.33,1.2,1.2,0,0,1,.82.25,1,1,0,0,1,.26.79,4.88,4.88,0,0,1,0,.61,4.3,4.3,0,0,1-.16.69c-.16.53-.3,1-.42,1.48s-.21.85-.28,1.19-.14.7-.2,1.09h.8l.79,0,.83-.05.95-.09c.4-.05.73-.09,1-.14l.72-.14.57-.1a3.08,3.08,0,0,1,.53,0,.5.5,0,0,1,.27.08C405.43,302.18,405.47,302.3,405.47,302.49Z" transform="translate(-270.5 -295.35)"/><path class="b5136ddd-014c-49d7-a4d3-c6df787a6e7f" d="M408.7,309a2.92,2.92,0,0,1-.2,1,4,4,0,0,1-.53,1,4.72,4.72,0,0,1-.76.85,5.06,5.06,0,0,1-.89.67,4.81,4.81,0,0,1-.92.44,2.87,2.87,0,0,1-.86.16,1.2,1.2,0,0,1-.91-.31,1.09,1.09,0,0,1-.29-.81,1.22,1.22,0,0,1,.08-.47,1.26,1.26,0,0,1,.22-.39A.92.92,0,0,1,404,311a1.06,1.06,0,0,1,.48-.1h.18a2,2,0,0,0,.46-.06,1.71,1.71,0,0,0,.6-.34,1.45,1.45,0,0,0,.43-.59,1.71,1.71,0,0,0,.14-.6,1,1,0,0,0-.11-.43,2.55,2.55,0,0,0-.3-.39,4,4,0,0,0-.42-.39l-.51-.38c-.23-.18-.47-.36-.7-.56a5.46,5.46,0,0,1-.65-.62,3.44,3.44,0,0,1-.46-.71A2,2,0,0,1,403,305a3,3,0,0,1,.15-.9,4.77,4.77,0,0,1,.42-.93,5.18,5.18,0,0,1,.6-.87,5.43,5.43,0,0,1,.7-.73,3.52,3.52,0,0,1,.73-.5,1.5,1.5,0,0,1,.69-.19,1.11,1.11,0,0,1,.79.26,1,1,0,0,1,.28.82,1.28,1.28,0,0,1-.14.55,3.36,3.36,0,0,1-.35.55,5.76,5.76,0,0,1-.47.53l-.51.47a3.28,3.28,0,0,1-.4.32,3.32,3.32,0,0,0-.36.26,2.22,2.22,0,0,0,.27.38,4.17,4.17,0,0,0,.36.37l.39.34.38.31c.25.2.51.42.76.64a8.15,8.15,0,0,1,.72.72,4,4,0,0,1,.53.79A2,2,0,0,1,408.7,309Z" transform="translate(-270.5 -295.35)"/></svg>