<svg id="adce4ed8-792c-4750-b13f-198a3283242f"  xmlns="http://www.w3.org/2000/svg" viewBox="0 0 241.05 43.34"><defs><style>.a4f882c7-c30a-4f5c-b8ba-c1ba4c3c4bcc{fill:#071013;}.a9186f6f-9be6-4b3a-86f3-eb8ef3a3eaae{fill:#eb5160;}.ebcd1340-6822-4fd3-bdb7-2628464c475b{fill:#b7999c;}</style></defs><path class="a4f882c7-c30a-4f5c-b8ba-c1ba4c3c4bcc" d="M293.61,298.92a11.06,11.06,0,0,1-1.58,3.83c-.3.53-.61,1.06-.95,1.58q-.24.41-.48.75l-.46.69c-.16.22-.31.44-.45.67l-.47.68-.7,1-.73,1c-.5.72-.89,1.32-1.2,1.8s-.58,1-.82,1.46a5.77,5.77,0,0,0-.5,1.35,5.24,5.24,0,0,1-1.4-.19q-.28-.08-1-1.47c-.24-.47-.48-1-.74-1.53s-.53-1.15-.8-1.8l-.82-2c-.27-.66-.55-1.32-.82-2q-.78-2-.84-2.13-.56-1.31-1-2.37c-.31-.72-.58-1.35-.83-1.91a7.06,7.06,0,0,1-.53-1.93.92.92,0,0,1,.87-.63,1.49,1.49,0,0,1,.8.34l.27.64.75,1.84,1.08,2.59,1.22,2.93,1.17,2.75.9,2.08a8.09,8.09,0,0,0,.95,1.83,18.33,18.33,0,0,0,1.66-2.19c.33-.5.67-1,1-1.55s.68-1.09,1-1.67.67-1.12.94-1.61.51-.92.72-1.32l.54-1.1c.2-.41.42-.87.65-1.39s.45-1,.63-1.39l.47-1.09c.1-.26.24-.39.44-.39s.54.22.73.65A2.5,2.5,0,0,1,293.61,298.92Z" transform="translate(-276.48 -295.56)"/><path class="a4f882c7-c30a-4f5c-b8ba-c1ba4c3c4bcc" d="M307.26,306a1.39,1.39,0,0,1-.21.67,9.39,9.39,0,0,1-.62.95c-.27.36-.57.74-.92,1.15s-.71.81-1.09,1.22-.9.92-1.39,1.35-1,.85-1.57,1.26a5.14,5.14,0,0,1-2.93,1.22,2.71,2.71,0,0,1-2.2-.95,5.4,5.4,0,0,1-1.07-2.32,14.17,14.17,0,0,1-.28-2.78c0-.4,0-1,.14-1.86.05-.42.1-.79.14-1.09a5.37,5.37,0,0,1,.16-.74,1.83,1.83,0,0,1,.69-1,1.77,1.77,0,0,1,1.12-.44c.21,0,.32.2.32.6a6.11,6.11,0,0,1-.08.9c-.05.34-.1.67-.16,1-.1.62-.17,1.17-.22,1.66a12.54,12.54,0,0,0-.07,1.27,9,9,0,0,0,.33,2.39c.22.82.61,1.23,1.18,1.23a4.35,4.35,0,0,0,2-.63c.38-.22.76-.46,1.15-.73a14.31,14.31,0,0,0,1.15-.89c.39-.33.76-.66,1.12-1s.71-.67,1-1,.66-.68.93-1,.51-.58.72-.84c0,0,0,0,0-.08l.06-.1a.35.35,0,0,1,.07-.09.07.07,0,0,1,.07,0c.11,0,.19.09.25.26A1.1,1.1,0,0,1,307.26,306Zm-7.67-9.53a2.16,2.16,0,0,1-.4,1.3,1.32,1.32,0,0,1-1.14.54,4.09,4.09,0,0,1-1-.14c-.38-.09-.56-.24-.56-.45a2,2,0,0,1,.35-1.1,3.06,3.06,0,0,1,.87-.85,1.35,1.35,0,0,1,.52-.23,2.35,2.35,0,0,1,1,.18A.74.74,0,0,1,299.59,296.49Z" transform="translate(-276.48 -295.56)"/><path class="a4f882c7-c30a-4f5c-b8ba-c1ba4c3c4bcc" d="M307.67,302.8a4.38,4.38,0,0,1,.4-.5,5.25,5.25,0,0,1,.49-.46,5.34,5.34,0,0,1,.5-.33.87.87,0,0,1,.41-.13.78.78,0,0,1,.33.07.92.92,0,0,1,.28.19,1,1,0,0,1,.2.26.67.67,0,0,1,.08.3,1.17,1.17,0,0,1-.16.57,3.4,3.4,0,0,1-.4.56,6.38,6.38,0,0,1-.52.52c-.19.16-.36.33-.53.48a4.84,4.84,0,0,0-.4.44.74.74,0,0,0-.17.38,2.8,2.8,0,0,0,.48.75,5.78,5.78,0,0,0,.7.7c.26.22.54.45.84.67l.93.7a3.07,3.07,0,0,1,.46.4l.34.37.23.27c0,.07.1.1.14.1a.51.51,0,0,0,.25-.1,2.39,2.39,0,0,0,.39-.26l.49-.41.55-.5c.45-.42.91-.88,1.37-1.38l1.29-1.39c.4-.44.75-.8,1.05-1.09s.51-.43.65-.43a.39.39,0,0,1,.2.05.36.36,0,0,1,.1.14.48.48,0,0,1,0,.18,1.41,1.41,0,0,1,0,.2,1.12,1.12,0,0,1-.18.45c-.13.21-.28.45-.48.74s-.42.58-.67.9-.5.65-.76,1-.51.61-.75.88-.46.5-.64.68l-.58.56c-.18.16-.36.34-.55.52s-.39.39-.63.61l-.82.81a10.18,10.18,0,0,0-.72.76c-.22.26-.45.51-.67.76s-.45.51-.68.77-.48.5-.74.74a11.74,11.74,0,0,1-1.25,1,2.15,2.15,0,0,1-1.18.39,1.58,1.58,0,0,1-.82-.19.57.57,0,0,1-.33-.52,1,1,0,0,1,.27-.66,3.54,3.54,0,0,1,.67-.58,10,10,0,0,1,.87-.53c.31-.16.6-.33.88-.49a3.85,3.85,0,0,0,1.25-1.12,2.26,2.26,0,0,0,.41-1.24,1.58,1.58,0,0,0-.52-1,9.32,9.32,0,0,0-1.74-1.33,5.59,5.59,0,0,1-.71-.55,4.75,4.75,0,0,1-.53-.6,3.23,3.23,0,0,1-.34-.58,1.25,1.25,0,0,1-.12-.49,4.45,4.45,0,0,1,.05-.77,2.82,2.82,0,0,1,.17-.68,5.22,5.22,0,0,1,.32-.69Q307.37,303.25,307.67,302.8Z" transform="translate(-276.48 -295.56)"/><path class="a4f882c7-c30a-4f5c-b8ba-c1ba4c3c4bcc" d="M329.14,306a1.39,1.39,0,0,1-.21.67,8.13,8.13,0,0,1-.63.95c-.26.36-.56.74-.91,1.15s-.71.81-1.1,1.22-.9.92-1.38,1.35-1,.85-1.57,1.26a5.14,5.14,0,0,1-2.93,1.22,2.71,2.71,0,0,1-2.2-.95,5.4,5.4,0,0,1-1.07-2.32,13.45,13.45,0,0,1-.28-2.78c0-.4.05-1,.14-1.86.05-.42.1-.79.14-1.09s.1-.55.15-.74a1.85,1.85,0,0,1,.7-1,1.77,1.77,0,0,1,1.12-.44c.21,0,.32.2.32.6a6.11,6.11,0,0,1-.08.9c-.05.34-.1.67-.16,1-.1.62-.17,1.17-.22,1.66a12.54,12.54,0,0,0-.07,1.27,9,9,0,0,0,.33,2.39c.22.82.61,1.23,1.18,1.23a4.35,4.35,0,0,0,2-.63c.38-.22.76-.46,1.15-.73a12.64,12.64,0,0,0,1.14-.89c.39-.33.77-.66,1.13-1s.71-.67,1-1,.66-.68.93-1,.51-.58.71-.84l0-.08.06-.1a.35.35,0,0,1,.07-.09.07.07,0,0,1,.07,0c.11,0,.19.09.25.26A1.1,1.1,0,0,1,329.14,306Zm-7.67-9.53a2.16,2.16,0,0,1-.4,1.3,1.32,1.32,0,0,1-1.14.54,4.09,4.09,0,0,1-1-.14c-.38-.09-.56-.24-.56-.45a1.89,1.89,0,0,1,.35-1.1,3.16,3.16,0,0,1,.86-.85,1.43,1.43,0,0,1,.53-.23,2.35,2.35,0,0,1,1,.18A.74.74,0,0,1,321.47,296.49Z" transform="translate(-276.48 -295.56)"/><path class="a4f882c7-c30a-4f5c-b8ba-c1ba4c3c4bcc" d="M340.3,303.51a1.06,1.06,0,0,1-.06.37.72.72,0,0,1-.16.25,1.69,1.69,0,0,1-.25.2l-.29.17a5.56,5.56,0,0,1-.92.29c-.36.08-.73.15-1.1.21l-1.13.15-1,.13c-.57.09-1.08.16-1.52.21l-1.13.14a7,7,0,0,0-.8.16,1.22,1.22,0,0,0-.5.23q-.26,1.07-.51,2.16c-.18.73-.33,1.42-.45,2.06,0,.11-.05.22-.08.35s-.06.24-.09.38-.1.51-.13.72a4,4,0,0,0,0,.59,1.92,1.92,0,0,0,.08.64c0,.09.06.2.1.34s.09.29.16.47a3,3,0,0,1,.18.79,1.45,1.45,0,0,1-.3.81.83.83,0,0,1-.66.43c-.25,0-.52-.2-.79-.59a5.52,5.52,0,0,1-.63-1.16,3.57,3.57,0,0,1-.18-1.1,1.93,1.93,0,0,1,0-.24l0-.26c0-.17.08-.39.14-.65a3,3,0,0,0,.08-.32c0-.09,0-.16,0-.22l.48-2.18c.13-.58.22-1,.29-1.37.16-.73.24-1.15.24-1.24a.35.35,0,0,0-.13-.29.59.59,0,0,0-.33-.1l-.5,0c-.19,0-.39,0-.62.07l-.56.06-.33,0a2.11,2.11,0,0,1-.77-.13,1.84,1.84,0,0,1-.6-.37,1.75,1.75,0,0,1-.39-.57,2.06,2.06,0,0,1-.14-.76c.22,0,.44.05.67.06s.48,0,.73,0,.27,0,.49,0l.84-.06.89-.07c.24,0,.44,0,.6,0s.39-.29.62-.87c.11-.3.21-.6.31-.9a9.46,9.46,0,0,0,.26-.95c.09-.33.16-.62.22-.88s.11-.47.15-.65.05-.21.1-.51a4.5,4.5,0,0,0,.1-.44c0-.14.05-.26.07-.37a7.76,7.76,0,0,1,.18-.82,4.91,4.91,0,0,1,.23-.68.86.86,0,0,1,.83-.61q.87,0,.87,1a4.43,4.43,0,0,1-.26,1.37,23.1,23.1,0,0,0-1.11,4.34.38.38,0,0,0,.43.43c.71,0,1.43,0,2.16,0s1.44-.08,2.13-.15c.36,0,.68-.06.95-.1l.77-.1.67-.1.69-.1h.18a.41.41,0,0,1,.22,0,.44.44,0,0,1,.19.12A.4.4,0,0,1,340.3,303.51Z" transform="translate(-276.48 -295.56)"/><path class="a9186f6f-9be6-4b3a-86f3-eb8ef3a3eaae" d="M356.25,304.65a2,2,0,0,1-.25.87,1.32,1.32,0,0,1-.2.27c-.1.1-.2.2-.31.29a3.4,3.4,0,0,1-.31.25l-.22.17a10.8,10.8,0,0,1-1,.71c-.4.26-.85.54-1.35.83s-1,.59-1.58.89l-1.66.89-1.62.82c-.52.26-1,.48-1.43.68a8.34,8.34,0,0,0-.89.47c-.28.18-.56.34-.82.49a6.09,6.09,0,0,1-.82.39,2.49,2.49,0,0,1-.87.15,1.81,1.81,0,0,1-.52-.07,1.32,1.32,0,0,1-.45-.2,1.11,1.11,0,0,1-.32-.36,1.05,1.05,0,0,1-.12-.52.47.47,0,0,1,.11-.31,1.38,1.38,0,0,1,.28-.25,3.55,3.55,0,0,1,.39-.2l.41-.17.5-.17.58-.17.57-.18.47-.19a2.85,2.85,0,0,0,.7-.51,4.77,4.77,0,0,0,.61-.66c.19-.25.37-.5.53-.76s.32-.51.46-.75.18-.35.27-.56.16-.4.23-.61.11-.39.15-.58a2.91,2.91,0,0,0,.05-.46,2.17,2.17,0,0,0-.35-1.29,1.05,1.05,0,0,0-.88-.48,1.61,1.61,0,0,0-.75.22,6.56,6.56,0,0,0-.86.52,8.62,8.62,0,0,0-.8.64c-.24.22-.44.41-.59.57a10.4,10.4,0,0,0-1,1.25c-.32.44-.62.91-.9,1.38s-.55.95-.8,1.42-.48.94-.69,1.37-.18.78-.27,1.22a14.43,14.43,0,0,0-.21,1.47c-.08,1.05-.15,2-.19,2.82a16.33,16.33,0,0,1-.26,2.27,1.34,1.34,0,0,1-.34.67,1,1,0,0,1-1,.22,1.24,1.24,0,0,1-.34-.18,1.72,1.72,0,0,1-.27-.27.52.52,0,0,1-.11-.32,9.25,9.25,0,0,1,.06-.95c0-.38.07-.76.12-1.15s.09-.73.13-1,.08-.53.09-.65c.11-.81.21-1.68.29-2.61s.16-1.95.22-3.06c0-.23,0-.54,0-.93s0-.77,0-1.17,0-.76,0-1.1,0-.58.05-.72c.11-1.49.5-2.24,1.17-2.24a.75.75,0,0,1,.38.1,1.14,1.14,0,0,1,.32.26,1.09,1.09,0,0,1,.22.36.92.92,0,0,1,.09.38,4.79,4.79,0,0,1-.09.89c-.06.31-.13.64-.2,1s-.13.66-.19,1a4.78,4.78,0,0,0-.09.88c0,.22,0,.34.07.34.55-1,1.09-1.85,1.61-2.6a12.75,12.75,0,0,1,1.57-1.86c.34-.31.67-.6,1-.86a7,7,0,0,1,1-.68,4.44,4.44,0,0,1,1-.44,4.11,4.11,0,0,1,1.13-.17,1.85,1.85,0,0,1,.85.2,2.44,2.44,0,0,1,.79.63,3.51,3.51,0,0,1,.58,1,3.84,3.84,0,0,1,.22,1.36,3.67,3.67,0,0,1-.19,1.17,6.94,6.94,0,0,1-.51,1.16,8.8,8.8,0,0,1-.75,1.09,9.15,9.15,0,0,1-.88,1,16.18,16.18,0,0,0,2-.89c.68-.35,1.35-.73,2-1.13s1.34-.83,2-1.27l1.87-1.28.43-.31a.55.55,0,0,1,.36-.13.18.18,0,0,1,.2.16A1.66,1.66,0,0,1,356.25,304.65Z" transform="translate(-276.48 -295.56)"/><path class="a9186f6f-9be6-4b3a-86f3-eb8ef3a3eaae" d="M370.11,303.31a.9.9,0,0,1-.14.44,2.81,2.81,0,0,1-.36.47,4.66,4.66,0,0,1-.51.47c-.18.15-.37.29-.56.42l-.53.34a4.49,4.49,0,0,1-.42.22,4.15,4.15,0,0,1-.8.23l-1,.17-1.05.11c-.35,0-.64,0-.87,0a2.57,2.57,0,0,1-.39-.05l-.5-.11-.49-.16a1.21,1.21,0,0,1-.33-.18c.07.29.13.59.19.89a5.64,5.64,0,0,1,.08.93,3.75,3.75,0,0,1-.05.52c0,.2-.09.41-.15.62a5.8,5.8,0,0,1-.19.59,2.72,2.72,0,0,1-.22.48,8.38,8.38,0,0,1-.63.93,4.86,4.86,0,0,1-.72.78,7.18,7.18,0,0,1-.91.68,11.27,11.27,0,0,1-1.16.61,6.8,6.8,0,0,1-1.42.43,8.75,8.75,0,0,1-1.47.12,1.42,1.42,0,0,1-.85-.28,2.27,2.27,0,0,1-.63-.76,3.91,3.91,0,0,1-.4-1.09,6.19,6.19,0,0,1-.13-1.31,3.88,3.88,0,0,1,0-.43,5.24,5.24,0,0,1,.08-.53c0-.18.07-.35.11-.51a3.82,3.82,0,0,1,.12-.42,8.61,8.61,0,0,1,.47-1.13,14,14,0,0,1,.71-1.29,12.76,12.76,0,0,1,.92-1.3A9,9,0,0,1,357,303.1a5.73,5.73,0,0,1,1.15-.81,2.65,2.65,0,0,1,1.19-.3.78.78,0,0,1,.33.06.8.8,0,0,1,.21.15,1.56,1.56,0,0,1,.16.2,1.46,1.46,0,0,0,.16.21.11.11,0,0,0,.11.06.8.8,0,0,0,.23-.05,1,1,0,0,1,.32,0,1,1,0,0,1,.55.28c.22.19.44.4.68.64s.48.44.72.63a1.09,1.09,0,0,0,.64.29l.68,0c.24,0,.48,0,.73,0l.74-.07.67-.11.39-.1.71-.2.85-.24.84-.24.64-.18.27-.07a.28.28,0,0,1,.13,0A.15.15,0,0,1,370.11,303.31ZM361,305.19a1.19,1.19,0,0,0-.28-.46,2.54,2.54,0,0,0-.46-.4,3.25,3.25,0,0,0-.56-.28,1.48,1.48,0,0,0-.55-.12,1.15,1.15,0,0,0-.41.08,1.53,1.53,0,0,0-.39.18,2.35,2.35,0,0,0-.37.24l-.33.25a4,4,0,0,0-.87,1.09,9.49,9.49,0,0,0-.73,1.5,12.28,12.28,0,0,0-.5,1.6,6.46,6.46,0,0,0-.19,1.38,1.43,1.43,0,0,0,.09.5,1.27,1.27,0,0,0,.25.42,1.24,1.24,0,0,0,.39.29,1,1,0,0,0,.49.12,3.28,3.28,0,0,0,1.3-.26,3.59,3.59,0,0,0,1.09-.69,4.74,4.74,0,0,0,.86-1.05,6.7,6.7,0,0,0,.63-1.32,8.8,8.8,0,0,0,.39-1.49A10.43,10.43,0,0,0,361,305.19Z" transform="translate(-276.48 -295.56)"/><path class="a9186f6f-9be6-4b3a-86f3-eb8ef3a3eaae" d="M380.52,306v0a1.55,1.55,0,0,1-.23.68,8.6,8.6,0,0,1-.63.95c-.26.35-.56.73-.91,1.13s-.7.8-1.08,1.21-.9.92-1.38,1.35-1,.85-1.57,1.26a5.14,5.14,0,0,1-2.93,1.22,2.71,2.71,0,0,1-2.2-.95,5.28,5.28,0,0,1-1.07-2.32,13.45,13.45,0,0,1-.28-2.78c0-.4.05-1,.14-1.86.05-.42.1-.79.14-1.09s.1-.55.15-.74a1.85,1.85,0,0,1,.7-1,1.77,1.77,0,0,1,1.12-.44c.21,0,.32.2.32.6a6.11,6.11,0,0,1-.08.9c-.05.34-.1.67-.16,1-.1.62-.17,1.17-.22,1.66a12.54,12.54,0,0,0-.07,1.27,8.94,8.94,0,0,0,.33,2.39c.22.82.61,1.23,1.18,1.23a4.35,4.35,0,0,0,2-.63c.38-.22.76-.46,1.15-.73a12.64,12.64,0,0,0,1.14-.89c.4-.33.78-.66,1.13-1l1-1c.36-.36.67-.68.94-1s.5-.58.7-.84l.1-.18c0-.08.09-.13.13-.13h0a.17.17,0,0,1,.14.07,1.39,1.39,0,0,1,.11.19A1,1,0,0,1,380.52,306Zm-7.32-9.53a2.15,2.15,0,0,1-.39,1.3,1.32,1.32,0,0,1-1.14.54,4.09,4.09,0,0,1-1-.14q-.57-.13-.57-.45a1.9,1.9,0,0,1,.36-1.1,3.16,3.16,0,0,1,.86-.85,1.5,1.5,0,0,1,.53-.23,2.35,2.35,0,0,1,1,.18A.76.76,0,0,1,373.2,296.49Z" transform="translate(-276.48 -295.56)"/><path class="a9186f6f-9be6-4b3a-86f3-eb8ef3a3eaae" d="M399.48,305.27a1.42,1.42,0,0,1-.08.45,3,3,0,0,1-.19.46,2.76,2.76,0,0,1-.25.44l-.27.42a10.09,10.09,0,0,1-.79,1.07,14,14,0,0,1-1,1.06c-.35.35-.71.67-1.07,1s-.73.57-1.08.8-.55.37-.81.53a4.79,4.79,0,0,1-.76.42,4.56,4.56,0,0,1-.81.28,3.39,3.39,0,0,1-.93.11,2.19,2.19,0,0,1-2.11-1.13,4.35,4.35,0,0,1-.4-.87,9.42,9.42,0,0,1-.29-1c-.09-.36-.15-.72-.21-1.07s-.14-.83-.2-1.18a5.12,5.12,0,0,0-.22-.88,1.76,1.76,0,0,0-.29-.55.59.59,0,0,0-.46-.19,1.86,1.86,0,0,0-.42.05,1.36,1.36,0,0,0-.42.18,3.73,3.73,0,0,0-.47.4,7.62,7.62,0,0,0-.61.68c-.23.28-.49.63-.79,1s-.64.89-1,1.46l-.69.9c-.27.33-.54.64-.82.94a9.69,9.69,0,0,1-.81.78,2.3,2.3,0,0,1-.7.44c-.69-.15-1-1-1-2.57,0-.42,0-1,.14-1.89.05-.38.11-.78.17-1.2s.14-.84.23-1.25.2-.83.33-1.22a7.87,7.87,0,0,1,.42-1.1,1.59,1.59,0,0,1,.25-.37,1.13,1.13,0,0,1,.26-.2,1,1,0,0,1,.28-.08l.3,0c.13,0,.24.09.34.26a1.56,1.56,0,0,1,.14.72,2.89,2.89,0,0,1,0,.52,4.77,4.77,0,0,1-.13.51c-.06.17-.12.36-.18.56s-.12.42-.19.68-.1.45-.15.7-.12.52-.17.79-.09.52-.13.78a5.89,5.89,0,0,0,0,.68,1.39,1.39,0,0,0,.07.44c.22,0,.58-.35,1.08-1l.85-1.05c.31-.38.64-.81,1-1.27s.53-.66.79-1a6,6,0,0,1,.82-.78,3.51,3.51,0,0,1,.89-.52,2.77,2.77,0,0,1,1-.2,1.8,1.8,0,0,1,1,.27,2,2,0,0,1,.65.72,4.37,4.37,0,0,1,.38,1.11,13,13,0,0,1,.21,1.42c0,.43.09.87.14,1.3a4.32,4.32,0,0,0,.25,1.15,1.94,1.94,0,0,0,.54.83,1.46,1.46,0,0,0,1,.32,2.65,2.65,0,0,0,1-.24,6.55,6.55,0,0,0,1.16-.65,12.74,12.74,0,0,0,1.26-1c.43-.37.88-.78,1.34-1.23a6.68,6.68,0,0,0,.59-.65l.64-.75a7.46,7.46,0,0,1,.58-.63.73.73,0,0,1,.43-.25.61.61,0,0,1,.23.07A.23.23,0,0,1,399.48,305.27Z" transform="translate(-276.48 -295.56)"/><path class="a9186f6f-9be6-4b3a-86f3-eb8ef3a3eaae" d="M409.78,303.33a.88.88,0,0,1-.24.66,2.73,2.73,0,0,1-.53.4,7.25,7.25,0,0,1-.87.32c-.31.09-.64.18-1,.25s-.66.14-1,.19l-1,.12-1,.09-1.07.1-1,.13a3,3,0,0,0-.7.17c-.17.71-.34,1.39-.53,2s-.33,1.28-.46,1.92c0,.15-.07.38-.12.67s-.1.61-.15.93-.09.63-.12.92a4.48,4.48,0,0,0-.05.61,1.38,1.38,0,0,0,.15.72,1.62,1.62,0,0,0,.33.39l.34.28a.46.46,0,0,1,.15.38.43.43,0,0,1-.16.32,1.84,1.84,0,0,1-.38.27,2,2,0,0,1-.48.18,1.85,1.85,0,0,1-.44.06,1.06,1.06,0,0,1-.6-.18,1.66,1.66,0,0,1-.46-.49,2.45,2.45,0,0,1-.29-.68,3.09,3.09,0,0,1-.11-.8,8.07,8.07,0,0,1,.09-1.16c.07-.41.14-.83.24-1.26s.19-.87.3-1.31l.3-1.35c0-.18.08-.38.12-.58s.08-.38.12-.56l.08-.44a1.23,1.23,0,0,0,0-.21.36.36,0,0,0-.14-.29.55.55,0,0,0-.32-.1l-.42,0-.59.06-.59.05-.41,0a4.87,4.87,0,0,1-.72,0,1.06,1.06,0,0,1-.47-.2.81.81,0,0,1-.27-.39,2,2,0,0,1-.09-.65.29.29,0,0,1,.15-.26,1,1,0,0,1,.37-.13,2.31,2.31,0,0,1,.46,0h.44l.5,0,.72-.06.73-.06.5,0,.16,0a.35.35,0,0,0,.19-.06.46.46,0,0,0,.19-.18,1.24,1.24,0,0,0,.14-.34c.05-.24.12-.53.2-.85s.15-.66.24-1,.16-.66.24-1,.14-.59.2-.82a5.93,5.93,0,0,0,.18-.7c.05-.25.09-.5.14-.75s.09-.49.14-.73a4,4,0,0,1,.22-.64.85.85,0,0,1,.83-.61c.58,0,.86.32.86,1a4.39,4.39,0,0,1-.25,1.37q-.57,1.79-.84,2.94a8.61,8.61,0,0,0-.27,1.55.38.38,0,0,0,.44.43h1l.94-.06,1-.1,1.18-.13.9-.14.79-.16.64-.15.47-.09.25,0a.56.56,0,0,1,.22,0,.24.24,0,0,1,.14.09A.54.54,0,0,1,409.78,303.33Z" transform="translate(-276.48 -295.56)"/><path class="a9186f6f-9be6-4b3a-86f3-eb8ef3a3eaae" d="M413.17,311.11a3.1,3.1,0,0,1-.22,1.16,5,5,0,0,1-.56,1.08,7.18,7.18,0,0,1-.82.93,6.41,6.41,0,0,1-1,.73,5.2,5.2,0,0,1-1,.49,3,3,0,0,1-.92.17,1,1,0,0,1-.78-.26,1.27,1.27,0,0,1-.18-.73,1.11,1.11,0,0,1,.16-.66,1.42,1.42,0,0,1,.47-.39l.13,0,.2,0h.41l.23,0a3,3,0,0,0,.33-.1,2.83,2.83,0,0,0,.36-.16,2.36,2.36,0,0,0,.35-.23,2.1,2.1,0,0,0,.67-.84,2.14,2.14,0,0,0,.19-.83,1.43,1.43,0,0,0-.29-.85,4.47,4.47,0,0,0-.74-.78c-.3-.25-.62-.51-1-.76a9.75,9.75,0,0,1-1-.81,4.41,4.41,0,0,1-.74-.91,2,2,0,0,1-.29-1.07,2.81,2.81,0,0,1,.07-.62,5.24,5.24,0,0,1,.2-.64c.08-.21.18-.42.28-.62a4.56,4.56,0,0,1,.34-.54,8.8,8.8,0,0,1,.61-.79,7.27,7.27,0,0,1,.68-.68,3.44,3.44,0,0,1,.66-.48,1.31,1.31,0,0,1,.61-.18c.53,0,.8.31.8.93a1.59,1.59,0,0,1-.26.77,4.75,4.75,0,0,1-.63.79c-.38.36-.7.67-1,.92s-.54.52-.78.78a4.71,4.71,0,0,0,.59.73q.31.33.66.63l.7.6c.24.19.48.4.71.61s.43.41.63.61a6.29,6.29,0,0,1,.53.65,2.77,2.77,0,0,1,.37.7A1.94,1.94,0,0,1,413.17,311.11Z" transform="translate(-276.48 -295.56)"/><circle class="ebcd1340-6822-4fd3-bdb7-2628464c475b" cx="167.54" cy="18.73" r="5.5"/><circle class="ebcd1340-6822-4fd3-bdb7-2628464c475b" cx="190.54" cy="18.73" r="5.5"/><circle class="ebcd1340-6822-4fd3-bdb7-2628464c475b" cx="142.54" cy="5.73" r="5.5"/><circle class="ebcd1340-6822-4fd3-bdb7-2628464c475b" cx="165.54" cy="5.73" r="5.5"/><path class="a9186f6f-9be6-4b3a-86f3-eb8ef3a3eaae" d="M303.52,324.69c8.84.43,17.67.74,26.5,1.12l26.5.92c8.84.32,17.67.56,26.5.8l26.5.72c8.84.26,17.67.38,26.5.58s17.67.39,26.5.51l26.5.33c8.84.05,17.67.15,26.5.11a2,2,0,0,1,0,4h0c-8.83,0-17.66.07-26.5.12l-26.5.33c-8.83.12-17.66.34-26.5.51s-17.66.32-26.5.58L383,336c-8.83.24-17.66.48-26.5.8l-26.5.92c-8.83.38-17.66.69-26.5,1.12a7.1,7.1,0,1,1-.7-14.19A5.45,5.45,0,0,1,303.52,324.69Z" transform="translate(-276.48 -295.56)"/><text x="-276.48" y="-295.56"/></svg>