<svg id="a6d76c88-2bba-4870-ad34-ae53baa79711" xmlns="http://www.w3.org/2000/svg" viewBox="0 0 119.67 87.99"><defs><style>.b689ea3a-3426-4c13-9771-4e2773c73bd6{fill:none;stroke:#071013;stroke-linecap:round;stroke-miterlimit:10;stroke-width:7.73px;}.b3abce3b-f9bc-4e75-82e8-547d45dd9bef{fill:#eb5160;}.a52fd18b-4b7c-405e-9b1b-c855b0649804{fill:#b7999c;}</style></defs><path class="b689ea3a-3426-4c13-9771-4e2773c73bd6" d="M146.27,271.57s-77.85,80-26.6,66.37" transform="translate(-98.34 -267.7)"/><path d="M120.94,314.52a5,5,0,0,1,2.14.42,4.17,4.17,0,0,1,1.48,1.09,4.51,4.51,0,0,1,.85,1.43,4.36,4.36,0,0,1,.27,1.46,4.24,4.24,0,0,1-.3,1.56,4.82,4.82,0,0,1-.9,1.41,4.37,4.37,0,0,1-1.48,1,5.37,5.37,0,0,1-4.6-.3,4.35,4.35,0,0,1-2.12-3.66,4.52,4.52,0,0,1,.32-1.65,4.35,4.35,0,0,1,1-1.42,4.42,4.42,0,0,1,1.49-1A4.89,4.89,0,0,1,120.94,314.52Zm-.24.23v-.06a4,4,0,0,0-1.58.35,4.65,4.65,0,0,0-1.36.94,4.56,4.56,0,0,0-.92,1.35,3.9,3.9,0,0,0-.33,1.59,4,4,0,0,0,.55,2,4.48,4.48,0,0,0,1.52,1.57,4.31,4.31,0,0,0,2.13.64V323a4,4,0,0,1-3.3-2.22A4.12,4.12,0,0,1,117,319a4.39,4.39,0,0,1,.26-1.53,4,4,0,0,1,.75-1.3,3.66,3.66,0,0,1,1.2-.93A4.06,4.06,0,0,1,120.7,314.75Zm.27.18a3.06,3.06,0,0,0-1.66.48,3.25,3.25,0,0,0-1.21,1.37,4.65,4.65,0,0,0-.45,2.11,4.56,4.56,0,0,0,.49,2.22,3.15,3.15,0,0,0,1.26,1.34,3.08,3.08,0,0,0,1.59.44,3.19,3.19,0,0,0,1.26-.26,3.15,3.15,0,0,0,1.07-.75,3.45,3.45,0,0,0,.73-1.22,4.57,4.57,0,0,0,.27-1.61,5.48,5.48,0,0,0-.28-1.95,3.7,3.7,0,0,0-.82-1.27,2.72,2.72,0,0,0-1-.68A3.55,3.55,0,0,0,121,314.93Zm.3-.24v.06a3.88,3.88,0,0,1,1.13.27,3.24,3.24,0,0,1,1.07.7,3.55,3.55,0,0,1,.8,1.29,6.13,6.13,0,0,1,.12,3.37,4.05,4.05,0,0,1-.57,1.25,3.21,3.21,0,0,1-1,.95,3.67,3.67,0,0,1-1.52.46v.07a4.15,4.15,0,0,0,1.41-.32,3.75,3.75,0,0,0,2-2.14,4.7,4.7,0,0,0,.3-1.72,4.94,4.94,0,0,0-.31-1.83,3.71,3.71,0,0,0-.85-1.32,3.77,3.77,0,0,0-1.2-.8A4,4,0,0,0,121.27,314.69Z" transform="translate(-98.34 -267.7)"/><path d="M134.88,321.64l-.86,1.61c-.37,0-.64-.05-.81-.05s-.48,0-.83.05-.62,0-.81,0a5.63,5.63,0,0,1-2.08-.36,4.27,4.27,0,0,1-1.48-1,4.1,4.1,0,0,1-.88-1.38,4.26,4.26,0,0,1-.28-1.52,5,5,0,0,1,.33-1.83,4.17,4.17,0,0,1,2.37-2.36,4.77,4.77,0,0,1,1.75-.31h.58l.44,0c.52,0,.92.05,1.2.05a7.8,7.8,0,0,0,1.21-.05l.07,2h-.07l-.38-1.31-.62-.11c-.29-.06-.58-.1-.86-.13a8.38,8.38,0,0,0-.88,0,4.12,4.12,0,0,0-2.05.48,3.14,3.14,0,0,0-1.28,1.37,4.71,4.71,0,0,0-.43,2,4.22,4.22,0,0,0,.31,1.65,3.57,3.57,0,0,0,.86,1.28,3.68,3.68,0,0,0,1.26.81,4.11,4.11,0,0,0,1.49.28,3.89,3.89,0,0,0,1.45-.27,2.85,2.85,0,0,0,1.22-1Zm-2.63-7h-.68a4.84,4.84,0,0,0-1.85.34,3.94,3.94,0,0,0-1.43.93,4.08,4.08,0,0,0-.89,1.39,4.64,4.64,0,0,0-.3,1.68,4,4,0,0,0,.31,1.57,3.88,3.88,0,0,0,.92,1.33,4.31,4.31,0,0,0,1.45.91,5.29,5.29,0,0,0,1.88.32h.59v-.08a5.55,5.55,0,0,1-2.06-.3,3.94,3.94,0,0,1-1.49-.93,3.87,3.87,0,0,1-.87-1.34,4.28,4.28,0,0,1-.29-1.53,4.63,4.63,0,0,1,.25-1.5,4.14,4.14,0,0,1,.77-1.35,3.64,3.64,0,0,1,1.34-1,4.66,4.66,0,0,1,1.94-.37h.41Z" transform="translate(-98.34 -267.7)"/><path d="M140.29,314.56l2.51,6.05a22,22,0,0,0,1.14,2.35l1,.21v.05h-4.1v-.05l1.58-.21a6.86,6.86,0,0,0-.32-1.26,7.43,7.43,0,0,0-.52-1.19H137.9c-.15.4-.28.72-.37,1s-.19.52-.28.8a6.07,6.07,0,0,0-.17.68l1.52.21v.05h-3.24v-.05l1.06-.21a11.63,11.63,0,0,0,.72-1.5l2.69-6.9Zm-.62,1.65c-.1.2-.24.5-.41.9s-.33.77-.47,1.12-.29.72-.44,1.11l-.3.78c.23,0,.5.05.8.06s.59,0,.87,0a14.81,14.81,0,0,0,1.66-.08,19.82,19.82,0,0,0-.75-1.88C140.28,317.42,140,316.74,139.67,316.21Zm.09-.5,3,7.29h.39L140,315.22Z" transform="translate(-98.34 -267.7)"/><path d="M145.54,314.65h5c.31,0,.59,0,.85,0l1-.08.14,1.89h-.07l-.43-1.38a7.39,7.39,0,0,0-2,0,5.19,5.19,0,0,0-.87.18c0,.36-.06.71-.07,1.05s0,.65,0,.93,0,.49,0,.59v1.95c0,.51,0,1.08.05,1.72s.08,1.14.13,1.52l1.44.22v.05h-4.39v-.05l1.41-.22a23.24,23.24,0,0,0,.18-3.14v-2.12c0-.43,0-.87,0-1.29s-.05-.83-.09-1.21A4.11,4.11,0,0,0,147,315c-.3,0-.58-.06-.85-.07a7.32,7.32,0,0,0-1.24.1l-.42,1.4h-.08l.12-1.92a4.26,4.26,0,0,1,.51.05A4.28,4.28,0,0,0,145.54,314.65Zm2.5.21V323h.39v-8.14Z" transform="translate(-98.34 -267.7)"/><path d="M152.79,314.71v-.06H159l.15,1.82H159L158.6,315c-.32,0-.69,0-1.1,0a8.7,8.7,0,0,0-1.81.16,17.48,17.48,0,0,0-.12,2.17c0,.51,0,.92.05,1.24l1.17.05a12.52,12.52,0,0,0,1.35-.08l.26-1h.1V320h-.1l-.27-1.05a9.59,9.59,0,0,0-1.12-.06,11.84,11.84,0,0,0-1.39.07,8.54,8.54,0,0,0-.05,1.33c0,.55,0,1,0,1.37s0,.68.07.94a6.63,6.63,0,0,0,1.85.22,8.67,8.67,0,0,0,1.12-.06l.46-1.41h.09l-.13,1.83H152.8v-.05l1.39-.21c0-.16.06-.4.09-.73s0-.7.06-1.11,0-.75,0-1,0-.52,0-.72V317.9c0-.19,0-.46,0-.8s0-.71,0-1.08-.06-.74-.1-1.11Zm1.76.17V323h.4v-8.12Z" transform="translate(-98.34 -267.7)"/><path class="b3abce3b-f9bc-4e75-82e8-547d45dd9bef" d="M163.57,327.38v-.29l.63,0a1,1,0,0,0,.65-.23,1.09,1.09,0,0,0,.15-.69l0-.74v-8.73l0-.74a1.12,1.12,0,0,0-.15-.68,1,1,0,0,0-.67-.23l-.57,0v-.29h4.81v1.06a2.82,2.82,0,0,1,.63-.82,2.41,2.41,0,0,1,1.65-.42,3.53,3.53,0,0,1,2.77,1.21,4.77,4.77,0,0,1,1.07,3.27,4.68,4.68,0,0,1-1.07,3.21,3.55,3.55,0,0,1-2.78,1.2,2.73,2.73,0,0,1-1.65-.34,2.45,2.45,0,0,1-.6-.72l0,1.06v1.71l0,.83a1.56,1.56,0,0,0,.24.82,1.23,1.23,0,0,0,.74.28l.84,0v.29Zm4.94-5.4a1,1,0,0,0,.4.69,1.26,1.26,0,0,0,.73.23.88.88,0,0,0,.83-.54,3.35,3.35,0,0,0,.34-1.19c.05-.43.08-.81.1-1.15s0-.7,0-1.1v-1.17c0-.35-.08-.71-.12-1.09a2.94,2.94,0,0,0-.34-1.09.93.93,0,0,0-.87-.54,1,1,0,0,0-.68.32,1.31,1.31,0,0,0-.4.76c0,.29,0,.67-.05,1.13s0,.92,0,1.38v2C168.46,321.15,168.48,321.61,168.51,322Z" transform="translate(-98.34 -267.7)"/><path class="b3abce3b-f9bc-4e75-82e8-547d45dd9bef" d="M184.71,319a4.07,4.07,0,0,1-1.44,3.18,5,5,0,0,1-3.38,1.26,4.89,4.89,0,0,1-3.43-1.26,4.15,4.15,0,0,1-1.38-3.18,4.1,4.1,0,0,1,1.4-3.18,5.22,5.22,0,0,1,6.81,0A4.1,4.1,0,0,1,184.71,319Zm-3.55,0c0-.17,0-.5,0-1s0-.8,0-.9a3.71,3.71,0,0,0-.3-1.6,1,1,0,0,0-.92-.63,1,1,0,0,0-.87.66,3.76,3.76,0,0,0-.3,1.57q0,.35,0,.84c0,.33,0,.69,0,1.07,0,.17,0,.51,0,1s0,.82,0,.9a3.77,3.77,0,0,0,.29,1.61.95.95,0,0,0,1.79,0,3.61,3.61,0,0,0,.31-1.59c0-.24,0-.52,0-.85S181.13,319.34,181.16,318.94Z" transform="translate(-98.34 -267.7)"/><path class="b3abce3b-f9bc-4e75-82e8-547d45dd9bef" d="M190.92,323.22h-5.8v-.28l.42,0c.35,0,.56-.12.63-.25a2.2,2.2,0,0,0,.11-.87v-5.87a3.17,3.17,0,0,0-.11-.64c0-.15-.26-.24-.64-.27l-.48,0v-.29h4.69V321l0,.83a2.3,2.3,0,0,0,.1.86c.07.14.28.22.63.26l.43,0Zm-4.68-11.53a1.61,1.61,0,0,1,.51-1.2A1.71,1.71,0,0,1,188,310a1.76,1.76,0,0,1,1.25.48,1.59,1.59,0,0,1,.51,1.22,1.62,1.62,0,0,1-.51,1.21,1.74,1.74,0,0,1-1.25.5,1.71,1.71,0,0,1-1.23-.5A1.62,1.62,0,0,1,186.24,311.69Z" transform="translate(-98.34 -267.7)"/><path class="b3abce3b-f9bc-4e75-82e8-547d45dd9bef" d="M198.1,317.3v-.74c0-.93-.33-1.4-1-1.4a.94.94,0,0,0-.87.4,3.9,3.9,0,0,0-.42.81V321l0,.83a2,2,0,0,0,.13.94c.09.13.35.2.79.2v.28H191.2v-.28l.43,0c.34,0,.55-.12.62-.25a2.2,2.2,0,0,0,.11-.87l0-.83v-4.3l0-.74a2.59,2.59,0,0,0-.11-.64c-.05-.15-.26-.24-.64-.27l-.41,0v-.29h4.55V316a3,3,0,0,1,.7-1,2.77,2.77,0,0,1,2-.52,3.48,3.48,0,0,1,2.2.72,2.11,2.11,0,0,1,.93,1.69v4.88a2.24,2.24,0,0,0,.11.86c.07.14.28.22.62.26l.4,0v.28h-5.52v-.28c.42,0,.68-.07.77-.21a1.84,1.84,0,0,0,.15-.93v-4.5Z" transform="translate(-98.34 -267.7)"/><path class="b3abce3b-f9bc-4e75-82e8-547d45dd9bef" d="M203.86,315.38h-1.21v-.49a4.4,4.4,0,0,0,1.27-.6,9.31,9.31,0,0,0,1.26-1,9.19,9.19,0,0,0,1-1.14,6.15,6.15,0,0,0,.61-1h.51v3.58h2.32l-.25.69h-2.07v4.89l0,.92a1.72,1.72,0,0,0,.34,1.17,1.05,1.05,0,0,0,.85.4,1.07,1.07,0,0,0,1-.59,2.69,2.69,0,0,0,.32-1.3h.25a2.84,2.84,0,0,1-.59,1.77,3.11,3.11,0,0,1-2.52.76,3.83,3.83,0,0,1-2.19-.64,2.1,2.1,0,0,1-.95-1.82Z" transform="translate(-98.34 -267.7)"/><path class="b3abce3b-f9bc-4e75-82e8-547d45dd9bef" d="M210.66,319.5h.23a8.77,8.77,0,0,0,.93,2.14,3.43,3.43,0,0,0,1,1,2.5,2.5,0,0,0,1.33.34,1.23,1.23,0,0,0,.76-.24.8.8,0,0,0,.32-.68,1.18,1.18,0,0,0-.25-.83,3.26,3.26,0,0,0-.78-.58c-.36-.21-.77-.45-1.24-.7a9,9,0,0,1-1.18-.76,2.87,2.87,0,0,1-.73-.84,2.21,2.21,0,0,1-.26-1.08,2.43,2.43,0,0,1,1-2.06,4.09,4.09,0,0,1,2.45-.73,3.43,3.43,0,0,1,1.28.25q.58.32,1.2.6a.5.5,0,0,0,.42-.31,1.37,1.37,0,0,0,.18-.72h.25V318h-.23c-.1-.29-.21-.61-.36-.95a5,5,0,0,0-.61-1.06,3.38,3.38,0,0,0-.85-.81,2,2,0,0,0-1.14-.29,1.28,1.28,0,0,0-.81.24.73.73,0,0,0-.32.6.9.9,0,0,0,.23.65,3.2,3.2,0,0,0,.65.5q.42.26,1.17.66c.49.27.93.54,1.33.8a3.8,3.8,0,0,1,1,1,2.57,2.57,0,0,1-.65,3.43,4.42,4.42,0,0,1-2.53.7,3.62,3.62,0,0,1-1.5-.32l-1.41-.74c-.15,0-.29.13-.41.38a2.2,2.2,0,0,0-.21.81h-.25Z" transform="translate(-98.34 -267.7)"/><ellipse class="a52fd18b-4b7c-405e-9b1b-c855b0649804" cx="39.32" cy="75.87" rx="5.56" ry="5.61"/><ellipse class="a52fd18b-4b7c-405e-9b1b-c855b0649804" cx="64.66" cy="70.26" rx="6.5" ry="6.56"/><ellipse class="a52fd18b-4b7c-405e-9b1b-c855b0649804" cx="79.92" cy="81.93" rx="6" ry="6.06"/><ellipse class="a52fd18b-4b7c-405e-9b1b-c855b0649804" cx="93.4" cy="68.18" rx="7.63" ry="7.7"/></svg>