<svg id="Layer_1"  xmlns="http://www.w3.org/2000/svg" viewBox="0 0 637.74 479.25"><defs><style>.cls-1{fill:beige;}.cls-2{fill:#bfafa2;}.cls-3{fill:#231f20;}.cls-4{fill:#b28f99;}.cls-5{fill:#2e3192;}.cls-6{fill:#21409a;}.cls-7{fill:#d1d3d4;}.cls-8{fill:#808285;}</style></defs><path class="cls-1" d="M731.38,533.93,94.81,545.15c-.78,0-1.35-1.12-1.12-2.24l46.47-227.26c2.27-11.1,9.07-18.8,16.88-19.13l429-18c6.67,0,97.84,21,97.84,30.94Z" transform="translate(-93.64 -65.91)"/><path class="cls-2" d="M572.2,392.15S560,407.34,560.8,419.21s5.89,19.41,0,34.87-8.41,22,0,22h59.74s3.17-24.58,0-42S617.08,390.8,572.2,392.15Z" transform="translate(-93.64 -65.91)"/><path class="cls-2" d="M478.5,397.28l14.49,40s24.16,7.18,27.38,0,5.64-40,5.64-40L483.77,383a5.51,5.51,0,0,0-7.06,6.55Z" transform="translate(-93.64 -65.91)"/><path class="cls-3" d="M578.41,353.84S566.17,369,567,380.89s5.89,19.42,0,34.88-16.83,22-8.41,22h68.15s3.17-24.58,0-42S623.29,352.49,578.41,353.84Z" transform="translate(-93.64 -65.91)"/><path class="cls-4" d="M28.11.44H54.48a16.3,16.3,0,0,1,16.3,16.3V238.87a1.9,1.9,0,0,1-1.9,1.9H28.11a0,0,0,0,1,0,0V.44a0,0,0,0,1,0,0Z"/><path class="cls-4" d="M551.55,65.31h33.1a9.94,9.94,0,0,1,9.94,9.94V230.78a0,0,0,0,1,0,0H541a0,0,0,0,1,0,0V75.84A10.52,10.52,0,0,1,551.55,65.31Z"/><path class="cls-3" d="M479.34,374.35l14.5,40s24.15,7.18,27.37,0,5.64-40,5.64-40l-42.24-14.3a5.51,5.51,0,0,0-7.06,6.55Z" transform="translate(-93.64 -65.91)"/><path class="cls-5" d="M467.26,75.35s-2.41,57.29,0,67.12,1.08,58.92-1.07,76.93,15.57,156.7,15.57,156.7,50.73,2.08,51.53-6.92,6.86-79.95.11-112.13c-6.55-31.22.1-163.69,0-168.6s0-13.1,0-13.1Z" transform="translate(-93.64 -65.91)"/><path class="cls-5" d="M546.18,75.35s5.63,33.56,8.05,49.11,10.47,95.76,8,113.77-2.23,95.27,4,109.64,47.5,8.22,59.58,21.31,0-185.79-2.43-190.7-9.65-39.29-9.65-39.29l4-63.84Z" transform="translate(-93.64 -65.91)"/><path class="cls-4" d="M245.74,303.58l-70.64,3.09V154.74c0-19.83,15.81-35.91,35.32-35.91h0c19.51,0,35.32,16.08,35.32,35.91Z" transform="translate(-93.64 -65.91)"/><path class="cls-6" d="M343.12,127.33H382c.16-.28.33-.57.48-.86a45.78,45.78,0,0,0-.15-43.64c-.25-.43-.5-.87-.77-1.28C375.73,72,366.4,65.91,355.87,65.91c-10.26,0-19.39,5.82-25.25,14.9-.41.63-.81,1.28-1.19,2a45.79,45.79,0,0,0-.77,42.64l1.15,1.42.41.51Z" transform="translate(-93.64 -65.91)"/><path class="cls-6" d="M347.24,126.47a35.36,35.36,0,0,0,2.07-12,34.39,34.39,0,0,0-14.83-28.61,30.74,30.74,0,0,0-17.27-5.33c-17.71,0-32.09,15.2-32.09,33.94a35.36,35.36,0,0,0,2.07,12h60.05Z" transform="translate(-93.64 -65.91)"/><path class="cls-6" d="M358.86,127.54a41.55,41.55,0,0,1-1.74-12,38.89,38.89,0,0,1,10.23-26.85A28.35,28.35,0,0,1,388,79.47c17,0,30.84,16.15,30.84,36.09a41.56,41.56,0,0,1-1.75,12H358.86Z" transform="translate(-93.64 -65.91)"/><path class="cls-6" d="M374,127.33c-.06-.17-.11-.33-.16-.51H382l-.44.51Z" transform="translate(-93.64 -65.91)"/><polygon class="cls-6" points="249.47 61.43 249.74 60.92 248.79 60.92 236.16 60.92 236.07 60.92 236.33 61.18 236.57 61.43 249.47 61.43"/><rect class="cls-7" x="103.55" y="82.2" width="6.91" height="4.28"/><rect class="cls-7" x="103.55" y="97.76" width="6.91" height="4.28"/><rect class="cls-7" x="114.46" y="113.33" width="6.91" height="4.28"/><rect class="cls-7" x="136.8" y="113.33" width="6.91" height="4.28"/><rect class="cls-7" x="103.37" y="168.91" width="6.91" height="4.28"/><rect class="cls-7" x="103.37" y="184.47" width="6.91" height="4.28"/><rect class="cls-7" x="114.28" y="200.04" width="6.91" height="4.28"/><rect class="cls-7" x="136.62" y="200.04" width="6.91" height="4.28"/><rect class="cls-7" x="95" y="121.46" width="6.91" height="4.28"/><rect class="cls-7" x="95" y="137.03" width="6.91" height="4.28"/><rect class="cls-7" x="105.91" y="152.59" width="6.91" height="4.28"/><rect class="cls-7" x="128.25" y="152.59" width="6.91" height="4.28"/><rect class="cls-7" x="30.62" y="26.36" width="5.44" height="10.16"/><rect class="cls-7" x="30.62" y="63.33" width="5.44" height="10.16"/><rect class="cls-7" x="39.22" y="100.3" width="5.44" height="10.16"/><rect class="cls-7" x="56.83" y="100.3" width="5.44" height="10.16"/><rect class="cls-7" x="30.62" y="139.17" width="5.72" height="8.88"/><rect class="cls-7" x="30.62" y="171.46" width="5.72" height="8.88"/><rect class="cls-7" x="39.66" y="203.76" width="5.72" height="8.88"/><rect class="cls-7" x="58.16" y="203.76" width="5.72" height="8.88"/><rect class="cls-7" x="680.35" y="204.92" width="6.91" height="7.05" transform="translate(1273.96 350.98) rotate(-180)"/><rect class="cls-7" x="680.35" y="179.27" width="6.91" height="7.05" transform="translate(1273.96 299.68) rotate(-180)"/><rect class="cls-7" x="669.44" y="153.62" width="6.91" height="7.05" transform="translate(1252.13 248.38) rotate(-180)"/><rect class="cls-7" x="647.09" y="153.62" width="6.91" height="7.05" transform="translate(1207.45 248.38) rotate(-180)"/><rect class="cls-7" x="553.45" y="130.38" width="6.91" height="11.04"/><rect class="cls-7" x="553.45" y="170.54" width="6.91" height="11.04"/><rect class="cls-7" x="564.36" y="210.7" width="6.91" height="11.04"/><rect class="cls-7" x="586.71" y="210.7" width="6.91" height="11.04"/><polygon class="cls-8" points="514.27 339.84 498.03 340.98 486.08 329.92 490.38 317.71 506.62 316.57 518.57 327.63 514.27 339.84"/></svg>