<svg id="Layer_1" height="20px" width="80px"  xmlns="http://www.w3.org/2000/svg" viewBox="0 0 78.4 75.89"><defs><style>.cls-1{fill:#231f20;stroke:#231f20;stroke-width:0.37px;}.cls-1,.cls-3{stroke-miterlimit:10;}.cls-2{fill:#be1e2d;}.cls-3{fill:none;stroke:#be1e2d;stroke-width:0.37px;}</style></defs><ellipse class="cls-1" cx="508.61" cy="380.82" rx="39.02" ry="37.74" transform="translate(-507.52 -285.79) rotate(-6.19)"/><path class="cls-2" d="M543.44,362.9a126.71,126.71,0,0,1-8.79,14.22c-3.17,4.52-6.52,8.88-10,13.12-1.73,2.13-3.53,4.19-5.33,6.26s-3.59,4.14-5.6,6a45.52,45.52,0,0,1-6.52,5.18,31.16,31.16,0,0,1-8,3.84l-.54-.49a30.88,30.88,0,0,1,3.07-8.32,45.3,45.3,0,0,1,4.54-7c1.68-2.17,3.6-4.12,5.46-6.14s3.77-4,5.73-5.89q5.82-5.82,12.11-11.21a124.25,124.25,0,0,1,13.33-10.09Z" transform="translate(-469.41 -342.87)"/><path class="cls-2" d="M478,357.6a84.27,84.27,0,0,1,8.31,12.2,141.88,141.88,0,0,1,6.52,12.91,84.59,84.59,0,0,1,5,13.52,51.3,51.3,0,0,1,1.36,7.21,34.8,34.8,0,0,1,.08,7.72l-.68.27a34.21,34.21,0,0,1-5.23-5.68,51.64,51.64,0,0,1-4-6.17,85.92,85.92,0,0,1-5.63-13.27,144.49,144.49,0,0,1-4.12-13.86,85.6,85.6,0,0,1-2.32-14.58Z" transform="translate(-469.41 -342.87)"/><path class="cls-3" d="M490.38,402.32" transform="translate(-469.41 -342.87)"/><path class="cls-3" d="M549.1,363.33" transform="translate(-469.41 -342.87)"/><path class="cls-3" d="M548.21,363.92" transform="translate(-469.41 -342.87)"/><path class="cls-3" d="M497.59,389.9" transform="translate(-469.41 -342.87)"/><path class="cls-3" d="M490.38,402.32" transform="translate(-469.41 -342.87)"/></svg>